<svg class="svg-icon" style="width: 1em; height: 1em;vertical-align: middle;fill: currentColor;overflow: hidden;" viewBox="0 0 1024 1024" version="1.1" xmlns="http://www.w3.org/2000/svg"><path d="M863.042633 554.10291c36.973076-36.511565 200.809515-218.821751-5.445012-403.481448 0 0-170.877809-136.610354-356.822778 43.711548-210.388684-206.372208-376.569518-1.563612-376.569518-1.563612-149.33005 198.443631 22.723537 356.421642 61.650105 388.255675l-17.610076 21.617343c-19.464307 23.917736-12.217253 62.071707 16.204054 85.221964 13.903661 11.329023 30.289863 16.881482 45.674249 16.900925 0.743944 18.250666 9.955746 37.33635 26.877137 51.119261 13.608949 11.092639 29.585829 16.58063 44.717458 16.824177-0.511653 19.361977 8.906857 40.159652 27.001981 54.901401 13.112646 10.683317 28.41005 16.078187 43.030026 16.696264 0.01228 18.926048 9.457396 39.048341 27.079752 53.408397 28.436656 23.161512 67.24759 22.567995 86.736457-1.337461l19.181875-23.547299 21.63781 25.535583c26.249851 30.958082 74.79959 32.956599 108.423385 4.445242 19.386536-16.427134 29.521361-39.399335 29.673833-61.841463 14.786775-2.210341 29.443589-8.587586 42.007743-19.246343 16.497743-13.987572 26.302039-32.716122 28.946262-51.828412 15.143908-2.064009 30.172183-8.426927 43.030026-19.328207 19.002796-16.109909 29.163203-38.492686 29.687136-60.513212 17.074887-1.073448 34.32783-7.350408 48.832172-19.643386 33.636075-28.510334 39.616276-76.717266 13.366426-107.681488L863.042633 554.10291zM168.921759 228.429573c79.244832-93.310176 172.063821-73.613578 232.960773-43.556005l-0.005117 0.005117c0 0 0.036839 0.01535 0.101307 0.042979 8.351202 4.125971 49.481971 32.035624 59.59326 46.899146 0.394996 0.592494 0.791016 1.178849 1.183965 1.781576l-140.068106 147.284461c0 0-67.069535 42.581818 0 83.452667 0 0 1.685385 1.322112 4.727675 3.405563-23.090904-7.283894-47.309492-2.371-61.407582 14.926968l-43.75555 53.6939C38.901497 388.770398 168.921759 228.429573 168.921759 228.429573zM218.022037 652.303466c-13.278421-9.912767-16.001439-28.703739-6.083555-41.96988l65.266469-87.361697c9.91686-13.273305 28.703739-15.994276 41.98216-6.070252 13.278421 9.910721 15.987113 28.695552 6.070252 41.966811l-65.278749 87.363743C250.07301 659.498332 231.286132 662.220327 218.022037 652.303466zM290.573423 720.322629c-13.291724-9.909697-16.000416-28.702716-6.083555-41.968857l65.266469-87.36272c9.904581-13.272281 28.689413-15.994276 41.981137-6.072299 13.264095 9.912767 15.987113 28.698622 6.057973 41.96988l-65.267493 87.363743C322.62235 727.517495 303.838541 730.241536 290.573423 720.322629zM404.057057 786.189779c-9.955746 13.060457-28.574802 15.717983-41.764196 5.860475-13.290701-9.912767-16.000416-28.703739-6.082532-41.96988l65.265446-87.36272c9.904581-13.272281 28.691459-15.994276 41.981137-6.069229 13.266142 9.909697 15.989159 28.696576 6.057973 41.967834l-65.023946 87.042425L404.057057 786.189779zM474.358193 856.082616c-9.904581 13.265118-28.691459 15.987113-41.955554 6.070252-13.291724-9.910721-16.001439-28.702716-6.083555-41.967834l65.1273-87.183641 0.254803-0.301875c9.92914-13.155624 28.624944-15.839757 41.866526-5.947456 13.265118 9.912767 15.987113 28.695552 6.057973 41.96988L474.358193 856.082616zM596.186889 865.091804c-13.264095 11.845793-35.399231 8.704243-49.431829-7.021927l-15.680121-17.545608 41.187051-50.54928 22.5199 25.201985C608.813464 830.900074 609.452008 853.247035 596.186889 865.091804zM827.759035 613.251032c-2.51324 18.009166-19.535939 22.841218-19.535939 22.841218-17.418718 4.592598-27.562752-6.39464-27.562752-6.39464L668.011728 496.785483l-0.155543 0.148379c-5.290493-5.471618-12.665461-8.902764-20.868283-8.902764-6.199189 0-11.924587 1.981121-16.651238 5.297656-2.467191 1.488911-4.576225 3.495614-6.122441 5.921873-3.871167 4.934382-6.260587 11.06808-6.260587 17.816784 0 8.197706 3.425006 15.570627 8.881274 20.847817 0 0.014326-0.025583 0.033769-0.037862 0.047072l111.63145 124.9682c8.138354 9.112542 11.761881 20.445658 10.79588 30.673603-0.019443 0.113587-0.040932 0.209778-0.059352 0.329505-1.947352 12.975523-14.990413 17.365506-14.990413 17.365506-11.360745 2.750647-18.656919-2.89391-21.399379-5.615904L600.130711 572.775178l-0.113587 0.085958c-5.3918-6.213515-13.340843-10.149151-22.213931-10.149151-16.238846 0-29.40368 13.164834-29.40368 29.405727 0 8.422833 3.547803 16.012695 9.223059 21.373797l111.673405 131.74658c0.182149 0.3776 0.475837 0.787946 0.910743 1.236154 6.671956 6.887874 6.465249 14.46648 6.465249 14.46648 0.217964 20.970614-16.661472 25.121144-16.661472 25.121144-15.055904 4.233418-24.26566-5.618974-24.397666-5.761214l-43.858904-51.746548c-3.770883-13.700023-11.961426-27.042913-24.639167-37.373189-13.099343-10.683317-28.396747-16.077164-43.016723-16.690124-0.013303-18.922978-9.469676-39.043225-27.092032-53.413514-13.610996-11.092639-29.586852-16.581654-44.703131-16.825201 0.496304-19.34765-8.92016-40.154535-27.01733-54.901401-13.891382-11.322883-30.275537-16.882506-45.661969-16.894785-0.715291-17.411555-9.213849-35.519981-24.689309-49.139164 51.015907 23.917736 192.228069 8.546653 257.351276-60.911278 0 0 26.605961-29.335119 55.138808-7.018857l149.523455 167.390381C825.032948 591.82914 828.660568 603.075275 827.759035 613.251032zM828.551074 513.412163 715.054137 379.505383c-38.984896-47.834448-57.573253-44.191478-88.462774-30.057573 0 0-22.248723 14.557554-23.414269 15.668865-52.651151 33.980929-180.512237 117.943203-244.500597 50.121538 0 0 135.322012-141.416823 214.419488-214.81346 0.223081-0.022513 0.356111-0.035816 0.356111-0.035816s0.202615-0.309038 0.618077-0.868787c8.055466-7.461949 44.261063-32.990369 60.863183-38.328957 56.426127-16.095583 180.975794-32.600489 251.77835 103.550401C886.710682 264.74364 953.254238 386.629641 828.551074 513.412163z"  /></svg>